<?xml version="1.0" encoding="utf-8"?>
<svg viewBox="118.788 105.212 405.818 188.121" data-background-color="#ffffff" preserveAspectRatio="xMidYMid meet" height="190px" width="406px" xmlns="http://www.w3.org/2000/svg">
  <g id="tight-bounds" transform="matrix(1,0,0,1,122.24000000000001,112.11069740754937)">
    <svg viewBox="0 0 395.52 175.77860518490127" height="175.77860518490127" width="395.52">
      <g>
        <svg viewBox="0 0 395.52 175.77860518490127" height="175.77860518490127" width="395.52">
          <g>
            <svg viewBox="0 0 395.52 175.77860518490127" height="175.77860518490127" width="395.52">
              <g>
                <svg viewBox="0 0 395.52 175.77860518490127" height="175.77860518490127" width="395.52">
                  <g>
                    <svg viewBox="0 0 395.52 134.23448461504572" height="134.23448461504572" width="395.52">
                      <rect width="395.52" height="134.23448461504572" x="0" y="0" opacity="1" fill="#1e293b" data-fill-palette-color="tertiary"/>
                      <g transform="matrix(1,0,0,1,23.461705032,23.46170503200001)">
                        <svg width="348.596589936" viewBox="3.6500000953674316 -33.70000076293945 134.54000854492188 33.70000076293945" height="87.3110745510457" data-palette-color="#ffffff">
                          <path d="M8.8 0L3.65 0 3.65-33.7 9.75-33.7 18.05-19.6Q20.35-15.65 22.23-12.3 24.1-8.95 24.8-7.6L24.8-7.6 25.5-6.2Q25.2-10.75 25.2-19.55L25.2-19.55 25.2-33.7 30.35-33.7 30.35 0 24.25 0 15.9-14.05Q13.65-17.85 11.78-21.23 9.9-24.6 9.15-26.1L9.15-26.1 8.4-27.55Q8.8-22.55 8.8-14.1L8.8-14.1 8.8 0ZM35.1-33.7L57.9-33.7 57.9-29.4 49.05-29.4 49.05 0 43.9 0 43.9-29.4 35.1-29.4 35.1-33.7ZM67.9-29.3L67.9-4.35 73.2-4.35Q78.95-4.35 81.95-7.95 84.95-11.55 84.95-17.2L84.95-17.2Q84.95-22.4 81.7-25.85 78.45-29.3 73.05-29.3L73.05-29.3 67.9-29.3ZM62.65 0L62.65-33.7 73.15-33.7Q80.65-33.7 85.45-29.05 90.25-24.4 90.25-17.2L90.25-17.2Q90.25-9.7 85.72-4.85 81.2 0 73.25 0L73.25 0 62.65 0ZM110.49-21.25L113.94-33.2 118.49-33.2 122.04-21.2 126.59-5.35Q128.44-14.45 130.04-21.2L130.04-21.2 132.99-33.7 138.19-33.7 129.94 0 123.79 0 120.59-10.65 116.24-25.7Q115.09-20.95 112.04-10.65L112.04-10.65 108.94 0 102.74 0 93.89-33.7 99.24-33.7 102.39-21.25 106.09-5.45Q108.34-13.85 110.49-21.25L110.49-21.25Z" opacity="1" transform="matrix(1,0,0,1,0,0)" fill="#ffffff" class="undefined-text-0" data-fill-palette-color="quaternary" id="text-0"/>
                        </svg>
                      </g>
                    </svg>
                  </g>
                  <g transform="matrix(1,0,0,1,0,145.96533713104571)">
                    <svg viewBox="0 0 395.52 29.813268053855566" height="29.813268053855566" width="395.52">
                      <g transform="matrix(1,0,0,1,0,0)">
                        <svg width="395.52" viewBox="3.5 -36.54999923706055 490.1499938964844 36.95000076293945" height="29.813268053855566" data-palette-color="#1e293b">
                          <path d="M9.95-28.4L9.95-5.25 14.4-5.25Q19.7-5.25 22.45-8.53 25.2-11.8 25.2-17.3L25.2-17.3Q25.2-22.15 22.28-25.28 19.35-28.4 14.3-28.4L14.3-28.4 9.95-28.4ZM3.5 0L3.5-33.7 14.5-33.7Q22.05-33.7 26.85-29.05 31.65-24.4 31.65-17.3L31.65-17.3Q31.65-9.55 27-4.78 22.35 0 14.5 0L14.5 0 3.5 0ZM41.6-14.75L52.25-14.75 52.25-15.5Q52.15-17.95 50.92-19.43 49.7-20.9 47.35-20.9L47.35-20.9Q45.2-20.9 43.62-19.33 42.05-17.75 41.6-14.75L41.6-14.75ZM56.35-6.6L56.35-6.6 56.35-1.4Q53.7 0.25 48.7 0.25L48.7 0.25Q42.65 0.25 39.15-3.35 35.65-6.95 35.65-12.65L35.65-12.65Q35.65-18.7 38.95-22.15 42.25-25.6 47.2-25.6 52.15-25.6 55.05-22.6 57.95-19.6 57.95-13.85L57.95-13.85Q57.95-12.45 57.6-10.25L57.6-10.25 41.7-10.25Q42.35-7.5 44.42-6.05 46.5-4.6 49.6-4.6L49.6-4.6Q53.6-4.6 56.35-6.6ZM78.6-24.55L78.6-24.55 78.6-19.25Q76.1-20.75 72.35-20.75L72.35-20.75Q70.8-20.75 69.92-20.08 69.05-19.4 69.05-18.35L69.05-18.35Q69.05-17.95 69.17-17.6 69.3-17.25 69.62-16.93 69.95-16.6 70.25-16.35 70.55-16.1 71.1-15.83 71.65-15.55 72.05-15.35 72.45-15.15 73.15-14.85 73.85-14.55 74.25-14.35L74.25-14.35Q76.9-13.05 78.45-11.45 80-9.85 80-7.3L80-7.3Q80-3.75 77.45-1.75 74.9 0.25 70.65 0.25L70.65 0.25Q65.95 0.25 63.05-1.3L63.05-1.3 63.05-6.8Q66.4-4.55 70.3-4.55L70.3-4.55Q71.95-4.55 72.87-5.18 73.8-5.8 73.8-6.9L73.8-6.9Q73.8-7.55 73.5-8.08 73.2-8.6 72.35-9.1 71.5-9.6 71.02-9.83 70.55-10.05 69.15-10.65L69.15-10.65Q69-10.7 68.92-10.75 68.85-10.8 68.7-10.85 68.55-10.9 68.45-10.95L68.45-10.95Q62.9-13.45 62.9-18.15L62.9-18.15Q62.9-21.65 65.55-23.65 68.2-25.65 72.2-25.65L72.2-25.65Q76.05-25.65 78.6-24.55ZM89.39-14.75L100.04-14.75 100.04-15.5Q99.94-17.95 98.72-19.43 97.49-20.9 95.14-20.9L95.14-20.9Q92.99-20.9 91.42-19.33 89.84-17.75 89.39-14.75L89.39-14.75ZM104.14-6.6L104.14-6.6 104.14-1.4Q101.49 0.25 96.49 0.25L96.49 0.25Q90.44 0.25 86.94-3.35 83.44-6.95 83.44-12.65L83.44-12.65Q83.44-18.7 86.74-22.15 90.04-25.6 94.99-25.6 99.94-25.6 102.84-22.6 105.74-19.6 105.74-13.85L105.74-13.85Q105.74-12.45 105.39-10.25L105.39-10.25 89.49-10.25Q90.14-7.5 92.22-6.05 94.29-4.6 97.39-4.6L97.39-4.6Q101.39-4.6 104.14-6.6ZM111.24-25.35L117.24-25.35 117.24-21Q119.39-25.65 125.04-25.65L125.04-25.65Q128.84-25.65 131.04-23.35 133.24-21.05 133.24-16.85L133.24-16.85 133.24 0 127.24 0 127.24-15.6Q127.24-18.1 126.04-19.38 124.84-20.65 122.79-20.65L122.79-20.65Q120.44-20.65 118.84-18.82 117.24-17 117.24-13.6L117.24-13.6 117.24 0 111.24 0 111.24-25.35ZM152.54 0L146.04 0 136.89-25.35 143.19-25.35 146.54-14.6Q147.54-11.45 148.24-8.97 148.94-6.5 149.14-5.6L149.14-5.6 149.29-4.7Q149.79-7.5 152.14-14.6L152.14-14.6 155.64-25.35 161.84-25.35 152.54 0ZM176.53 0.4L176.53 0.4Q170.78 0.4 167.56-3.2 164.34-6.8 164.34-12.4L164.34-12.4Q164.34-18.2 167.69-21.98 171.03-25.75 176.53-25.75L176.53-25.75Q182.38-25.75 185.59-22.08 188.78-18.4 188.78-12.75L188.78-12.75Q188.78-7 185.56-3.3 182.34 0.4 176.53 0.4ZM176.53-20.85L176.53-20.85Q173.69-20.85 172.16-18.5 170.63-16.15 170.63-12.6L170.63-12.6Q170.63-9.1 172.19-6.75 173.74-4.4 176.59-4.4L176.59-4.4Q179.53-4.4 181.03-6.7 182.53-9 182.53-12.55L182.53-12.55Q182.53-16.2 181.09-18.53 179.63-20.85 176.53-20.85ZM200.18 0L194.18 0 194.18-35.35 200.18-35.35 200.18 0ZM219.98 0L213.48 0 204.33-25.35 210.63-25.35 213.98-14.6Q214.98-11.45 215.68-8.97 216.38-6.5 216.58-5.6L216.58-5.6 216.73-4.7Q217.23-7.5 219.58-14.6L219.58-14.6 223.08-25.35 229.28-25.35 219.98 0ZM239.38 0L233.38 0 233.38-25.35 239.38-25.35 239.38 0ZM232.78-32.95L232.78-32.95Q232.78-34.45 233.83-35.5 234.88-36.55 236.38-36.55 237.88-36.55 238.93-35.5 239.98-34.45 239.98-32.95L239.98-32.95Q239.98-31.4 238.93-30.35 237.88-29.3 236.38-29.3 234.88-29.3 233.83-30.35 232.78-31.4 232.78-32.95ZM246.13-25.35L252.13-25.35 252.13-21.35Q254.28-25.65 259.27-25.65L259.27-25.65Q264.82-25.65 266.48-20.85L266.48-20.85Q267.48-23.15 269.48-24.4 271.48-25.65 274.02-25.65L274.02-25.65Q277.88-25.65 279.98-23.33 282.07-21 282.07-16.7L282.07-16.7 282.07 0 276.02 0 276.02-15.55Q276.02-20.65 272.13-20.65L272.13-20.65Q270.18-20.65 268.65-18.95 267.13-17.25 267.13-13.6L267.13-13.6 267.13 0 261.07 0 261.07-15.55Q261.07-20.65 257.18-20.65L257.18-20.65Q255.22-20.65 253.68-18.95 252.13-17.25 252.13-13.6L252.13-13.6 252.13 0 246.13 0 246.13-25.35ZM292.87-14.75L303.52-14.75 303.52-15.5Q303.42-17.95 302.2-19.43 300.97-20.9 298.62-20.9L298.62-20.9Q296.47-20.9 294.9-19.33 293.32-17.75 292.87-14.75L292.87-14.75ZM307.62-6.6L307.62-6.6 307.62-1.4Q304.97 0.25 299.97 0.25L299.97 0.25Q293.92 0.25 290.42-3.35 286.92-6.95 286.92-12.65L286.92-12.65Q286.92-18.7 290.22-22.15 293.52-25.6 298.47-25.6 303.42-25.6 306.32-22.6 309.22-19.6 309.22-13.85L309.22-13.85Q309.22-12.45 308.87-10.25L308.87-10.25 292.97-10.25Q293.62-7.5 295.7-6.05 297.77-4.6 300.87-4.6L300.87-4.6Q304.87-4.6 307.62-6.6ZM314.72-25.35L320.72-25.35 320.72-21Q322.87-25.65 328.52-25.65L328.52-25.65Q332.32-25.65 334.52-23.35 336.72-21.05 336.72-16.85L336.72-16.85 336.72 0 330.72 0 330.72-15.6Q330.72-18.1 329.52-19.38 328.32-20.65 326.27-20.65L326.27-20.65Q323.92-20.65 322.32-18.82 320.72-17 320.72-13.6L320.72-13.6 320.72 0 314.72 0 314.72-25.35ZM356.57-20.85L350.27-20.85 350.27-7.95Q350.27-6.35 351.12-5.53 351.97-4.7 353.47-4.7L353.47-4.7Q355.37-4.7 356.97-5.75L356.97-5.75 356.97-0.6Q355.22 0.25 352.47 0.25L352.47 0.25Q344.27 0.25 344.27-8.05L344.27-8.05 344.27-20.85 340.47-20.85 340.47-25.35 344.27-25.35 344.27-31.45 350.27-31.45 350.27-25.35 356.57-25.35 356.57-20.85ZM372.76 0.4L372.76 0.4Q367.01 0.4 363.79-3.2 360.56-6.8 360.56-12.4L360.56-12.4Q360.56-18.2 363.91-21.98 367.26-25.75 372.76-25.75L372.76-25.75Q378.61-25.75 381.81-22.08 385.01-18.4 385.01-12.75L385.01-12.75Q385.01-7 381.79-3.3 378.56 0.4 372.76 0.4ZM372.76-20.85L372.76-20.85Q369.91-20.85 368.39-18.5 366.86-16.15 366.86-12.6L366.86-12.6Q366.86-9.1 368.41-6.75 369.96-4.4 372.81-4.4L372.81-4.4Q375.76-4.4 377.26-6.7 378.76-9 378.76-12.55L378.76-12.55Q378.76-16.2 377.31-18.53 375.86-20.85 372.76-20.85ZM414.46 0L407.96 0 399.96-25.35 406.21-25.35 408.51-17Q409.51-13.4 410.18-10.58 410.86-7.75 411.01-6.75L411.01-6.75 411.21-5.75Q411.71-8.8 414.11-17L414.11-17 416.56-25.35 422.01-25.35 424.46-17Q425.56-13.3 426.28-10.48 427.01-7.65 427.21-6.7L427.21-6.7 427.36-5.7Q427.86-8.65 430.31-17L430.31-17 432.71-25.35 438.71-25.35 430.66 0 424.16 0 421.91-8.3Q421.01-11.55 420.36-14.23 419.71-16.9 419.51-17.9L419.51-17.9 419.31-18.95Q418.66-15.65 416.71-8.3L416.71-8.3 414.46 0ZM447.21-14.75L457.86-14.75 457.86-15.5Q457.76-17.95 456.53-19.43 455.31-20.9 452.96-20.9L452.96-20.9Q450.81-20.9 449.23-19.33 447.66-17.75 447.21-14.75L447.21-14.75ZM461.96-6.6L461.96-6.6 461.96-1.4Q459.31 0.25 454.31 0.25L454.31 0.25Q448.26 0.25 444.76-3.35 441.26-6.95 441.26-12.65L441.26-12.65Q441.26-18.7 444.56-22.15 447.86-25.6 452.81-25.6 457.76-25.6 460.66-22.6 463.56-19.6 463.56-13.85L463.56-13.85Q463.56-12.45 463.21-10.25L463.21-10.25 447.31-10.25Q447.96-7.5 450.03-6.05 452.11-4.6 455.21-4.6L455.21-4.6Q459.21-4.6 461.96-6.6ZM481.45-4.8L481.45-4.8Q484.05-4.8 485.8-6.95 487.55-9.1 487.55-12.55L487.55-12.55Q487.55-16.35 485.78-18.48 484-20.6 481.4-20.6L481.4-20.6Q478.95-20.6 477.05-18.68 475.15-16.75 475.15-12.9L475.15-12.9Q475.15-8.95 476.95-6.88 478.75-4.8 481.45-4.8ZM469.1-35.35L475.15-35.35 475.15-21.5Q477.8-25.7 482.75-25.7L482.75-25.7Q487.5-25.7 490.58-22.18 493.65-18.65 493.65-12.65L493.65-12.65Q493.65-7.25 490.73-3.45 487.8 0.35 482.8 0.35 477.8 0.35 475.15-3.9L475.15-3.9 475.15 0 469.1 0 469.1-35.35Z" opacity="1" transform="matrix(1,0,0,1,0,0)" fill="#1e293b" class="undefined-text-1" data-fill-palette-color="secondary" id="text-1"/>
                        </svg>
                      </g>
                    </svg>
                  </g>
                </svg>
              </g>
            </svg>
          </g>
        </svg>
      </g>
    </svg>
    <rect width="395.52" height="175.77860518490127" fill="none" stroke="none" visibility="hidden"/>
  </g>
</svg>